<svg xmlns="http://www.w3.org/2000/svg" xmlns:xlink="http://www.w3.org/1999/xlink" version="1.1" x="0px" y="0px" width="100px" height="100px" viewBox="0 0 100 100" enable-background="new 0 0 100 100" xml:space="preserve">
<g id="Layer_2">
</g>
<g id="Layer_1">
	<g>
		<path d="M-50,0c-27.614,0-50,22.386-50,50s22.386,50,50,50S0,77.614,0,50S-22.386,0-50,0z M-50,95c-24.813,0-45-20.187-45-45    c0-24.813,20.187-45,45-45C-25.187,5-5,25.187-5,50C-5,74.813-25.187,95-50,95z"/>
		<path d="M50,0C22.386,0,0,22.386,0,50s22.386,50,50,50s50-22.386,50-50S77.614,0,50,0z M50,95C25.188,95,5,74.813,5,50    C5,25.187,25.188,5,50,5c24.813,0,45,20.187,45,45C95,74.813,74.813,95,50,95z"/>
		<circle cx="22.5" cy="37.5" r="2.5"/>
		<circle cx="77.5" cy="37.5" r="2.5"/>
		<path d="M77.5,47.5h-55c-1.381,0-2.5,1.119-2.5,2.5s1.119,2.5,2.5,2.5h55c1.381,0,2.5-1.119,2.5-2.5S78.881,47.5,77.5,47.5z"/>
		<path d="M150,0c-27.614,0-50,22.386-50,50s22.386,50,50,50s50-22.386,50-50S177.614,0,150,0z M150,95c-24.812,0-45-20.187-45-45    c0-24.813,20.188-45,45-45c24.813,0,45,20.187,45,45C195,74.813,174.813,95,150,95z"/>
		<path d="M50,0c27.614,0,50-22.386,50-50s-22.386-50-50-50S0-77.614,0-50S22.386,0,50,0z M50-95c24.813,0,45,20.187,45,45    C95-25.187,74.813-5,50-5C25.188-5,5-25.187,5-50C5-74.813,25.188-95,50-95z"/>
		<path d="M-50,0C-22.386,0,0-22.386,0-50s-22.386-50-50-50s-50,22.386-50,50S-77.614,0-50,0z M-50-95c24.813,0,45,20.187,45,45    C-5-25.187-25.187-5-50-5c-24.813,0-45-20.187-45-45C-95-74.813-74.813-95-50-95z"/>
		<path d="M150,0c27.615,0,50-22.386,50-50s-22.385-50-50-50c-27.613,0-50,22.386-50,50S122.387,0,150,0z M150-95    c24.814,0,45,20.187,45,45c0,24.813-20.186,45-45,45c-24.812,0-45-20.187-45-45C105-74.813,125.188-95,150-95z"/>
	</g>
</g>
</svg>