<svg xmlns="http://www.w3.org/2000/svg" xmlns:xlink="http://www.w3.org/1999/xlink" xmlns:a="http://ns.adobe.com/AdobeSVGViewerExtensions/3.0/" version="1.1" x="0px" y="0px" width="100px" height="100px" viewBox="-20.017 -22.049 100 100" enable-background="new -20.017 -22.049 100 100" xml:space="preserve">
<defs>
</defs>
<polygon points="22.596,43.936 0,43.936 0,51.207 18,51.207 "/>
<polygon points="37.371,43.936 59.967,43.936 59.967,51.207 41.968,51.207 "/>
<polygon points="38.012,53.33 38.012,50.756 21.65,50.756 21.65,53.33 18.998,53.33 18.998,55.904 40.664,55.904 40.664,53.33 "/>
<rect x="26.043" y="43.936" width="7.576" height="2.574"/>
<path d="M53.758,36.865v3.615H6.207v-3.615h3.695V21.926H6.207v-3.615h47.551v3.615h-4.818v14.939H53.758z M21.469,21.926H16.65  v14.939h4.818V21.926z M32.393,21.926h-4.818v14.939h4.818V21.926z M43.316,21.926h-4.818v14.939h4.818V21.926z"/>
<polygon points="29.982,14.998 55.434,14.998 55.434,11.211 29.982,0 4.529,11.211 4.529,14.998 "/>
</svg>