<svg xmlns:dc="http://purl.org/dc/elements/1.1/" xmlns:cc="http://creativecommons.org/ns#" xmlns:rdf="http://www.w3.org/1999/02/22-rdf-syntax-ns#" xmlns:svg="http://www.w3.org/2000/svg" xmlns="http://www.w3.org/2000/svg" xmlns:sodipodi="http://sodipodi.sourceforge.net/DTD/sodipodi-0.dtd" xmlns:inkscape="http://www.inkscape.org/namespaces/inkscape" width="100" height="100" viewBox="0 0 80 80" version="1.1" id="svg2" inkscape:version="0.48.2 r9819" sodipodi:docname="blank.svg">
  <metadata id="metadata10">
    <rdf:RDF>
      <cc:Work rdf:about="">
        <dc:format>image/svg+xml</dc:format>
        <dc:type rdf:resource="http://purl.org/dc/dcmitype/StillImage"/>
        <dc:title/>
      </cc:Work>
    </rdf:RDF>
  </metadata>
  <defs id="defs8"/>
  <sodipodi:namedview pagecolor="#ffffff" bordercolor="#666666" borderopacity="1" objecttolerance="10" gridtolerance="10" guidetolerance="10" inkscape:pageopacity="0" inkscape:pageshadow="2" inkscape:window-width="1366" inkscape:window-height="706" id="namedview6" showgrid="true" inkscape:zoom="4.688118" inkscape:cx="50" inkscape:cy="50" inkscape:window-x="-8" inkscape:window-y="-8" inkscape:window-maximized="1" inkscape:current-layer="svg2" inkscape:snap-grids="false">
    <inkscape:grid type="xygrid" id="grid3807"/>
  </sodipodi:namedview>
  <path inkscape:connector-curvature="0" style="fill:#000000;fill-opacity:1;stroke:none" d="m 30.105616,56.889022 0,20.49045 c 0,0.76062 0.610226,1.37083 1.37084,1.37083 l 3.206643,0 c 0.76068,0 1.370841,-0.61021 1.370841,-1.37083 l 0,-20.47445 -5.948324,-0.0159 z m 8.225041,0.0241 0,20.58665 c 0,0.76067 0.618179,1.37083 1.378856,1.37083 l 3.198627,0 c 0.76068,0 1.378857,-0.61016 1.378857,-1.37083 l 0,-20.57862 -5.95634,-0.008 z" id="rect3893-8-0"/>
  <path inkscape:connector-curvature="0" style="fill:#000000;fill-opacity:1;stroke:none" d="m 61.667006,12.180372 c -0.09092,0.009 -0.181737,0.028 -0.272565,0.0561 l -3.350943,1.03415 1.178442,4.4332 3.527308,-1.09026 c 0.726593,-0.22477 1.130621,-0.9969 0.905877,-1.72358 l -0.54513,-1.74761 c -0.196676,-0.63582 -0.806509,-1.02531 -1.442989,-0.962 z" id="rect3897-1-2"/>
  <path inkscape:connector-curvature="0" style="fill:#000000;fill-opacity:1;stroke:none" d="m 22.537937,39.156282 -0.0962,0.85776 c -0.08545,0.75585 0.454707,1.42973 1.210508,1.51515 l 1.81977,0.20841 c 0.755796,0.0854 1.429694,-0.45468 1.51514,-1.2105 l 0.0962,-0.88182 -4.545417,-0.489 z" id="rect3899-4-3"/>
  <path inkscape:connector-curvature="0" style="font-size:medium;font-style:normal;font-variant:normal;font-weight:normal;font-stretch:normal;text-indent:0;text-align:start;text-decoration:none;line-height:normal;letter-spacing:normal;word-spacing:normal;text-transform:none;direction:ltr;block-progression:tb;writing-mode:lr-tb;text-anchor:start;baseline-shift:baseline;color:#000000;fill:#000000;fill-opacity:1;fill-rule:nonzero;stroke:none;stroke-width:2.59086752px;marker:none;visibility:visible;display:inline;overflow:visible;enable-background:accumulate;font-family:Sans;-inkscape-font-specification:Sans" d="m 34.330369,14.569322 -0.312648,0.0321 c 0,0 -4.480336,0.47399 -7.319164,0.72952 l -0.008,0 c -1.234029,0.0892 -2.091514,0.25292 -2.629448,0.88181 -0.53927,0.63047 -0.660999,1.57931 -0.665378,3.10244 -0.01657,5.75046 -1.827787,19.87318 -1.827787,19.87318 l -0.0481,0.34471 0.352731,0.0241 5.611626,0.43292 0.312648,0.0241 0.0481,-0.30464 2.284733,-15.87288 0.416864,0.0401 -0.953977,14.61429 -4.505334,18.36606 -0.104216,0.40884 0.42488,0 11.511851,-0.0802 0.328681,0 0,-0.32867 0,-0.16836 -0.625295,-0.0481 0,-6.59768 -0.04008,6.47742 -10.750273,0.0802 4.417151,-17.98126 0,-0.0241 0.008,-0.0321 0.978026,-14.95897 0.02404,-0.32067 -0.320664,-0.0321 -1.058192,-0.10423 -0.312648,-0.0321 -0.0481,0.31264 -2.29275,15.87288 -4.962281,-0.37676 c 0.07713,-0.59954 1.779146,-13.85355 1.79572,-19.60863 0.0043,-1.48324 0.161169,-2.26751 0.505047,-2.66952 0.343878,-0.40206 0.98075,-0.56314 2.180518,-0.64936 2.724995,-0.24511 6.6588,-0.66698 7.022549,-0.70546 l 2.910029,18.93523 0.344714,-2.13242 -2.645481,-17.21164 -0.0481,-0.31266 z" id="path3887"/>
  <path style="font-size:medium;font-style:normal;font-variant:normal;font-weight:normal;font-stretch:normal;text-indent:0;text-align:start;text-decoration:none;line-height:normal;letter-spacing:normal;word-spacing:normal;text-transform:none;direction:ltr;block-progression:tb;writing-mode:lr-tb;text-anchor:start;baseline-shift:baseline;color:#000000;fill:#000000;fill-opacity:1;fill-rule:nonzero;stroke:none;stroke-width:2.59086752px;marker:none;visibility:visible;display:inline;overflow:visible;enable-background:accumulate;font-family:Sans;-inkscape-font-specification:Sans" d="m 58.540528,12.340712 -0.360747,0.12826 c 0,0 -5.946834,2.05359 -11.664167,2.78978 -2.258439,-0.11941 -4.650898,-0.40606 -6.966433,-0.65736 l -0.312648,-0.0321 -0.0481,0.31266 -2.998212,19.5044 0,0.0241 0,0.0241 0.128266,22.41444 0,0.32869 0.328681,0 11.51185,0.0882 0.424881,0.008 -0.104216,-0.41686 -4.505335,-18.37407 -0.953976,-14.60628 0.729511,-0.0721 0.04008,0 0.04008,-0.0159 c 5.13336,-1.80285 10.461993,-3.47489 15.688505,-5.17873 l 0.280581,-0.0882 -0.05612,-0.2886 -1.122325,-5.51543 -0.08017,-0.37676 z m -0.505046,0.86579 0.994059,4.86607 c -5.12226,1.66758 -10.344837,3.3108 -15.391889,5.08256 l -1.002076,0.0962 -0.320665,0.0321 0.02404,0.32067 0.978027,14.95896 0,0.0241 0.008,0.0321 4.409135,17.98927 -10.758289,-0.0882 -0.128266,-22.03765 2.950112,-19.19176 c 2.228756,0.24363 4.526971,0.51078 6.725935,0.6253 l 0.03207,0.008 0.02404,-0.008 c 5.531419,-0.70998 10.905837,-2.52243 11.455734,-2.70962 z" id="path3889" inkscape:connector-curvature="0"/>
  <path id="path3903-4" d="m 36.513359,0.47104847 c -3.791507,0 -6.865137,3.07360403 -6.865137,6.86511403 0,0.007 -7e-6,0.009 0,0.0139 -0.0053,0 -0.0092,0 -0.01429,0 -0.06327,2.16445 -0.205731,3.6352295 -0.400464,5.0487095 -0.18392,0.60024 -1.215698,-0.0432 -2.131053,-0.50051 0.424757,2.11387 1.198556,2.75525 2.274077,2.7603 0.895939,-0.0326 1.93178,-0.85327 1.845005,-2.7603 2.57e-4,-0.0598 -7.69e-4,-0.13779 0,-0.20028 1.259172,1.52575 3.159155,2.5029 5.291883,2.5029 2.118171,0 4.003952,-0.96645 5.26327,-2.47432 7.69e-4,0.0532 -2.57e-4,0.12036 0,0.1717 -0.08677,1.90703 0.963368,2.728 1.859307,2.7603 1.075521,-0.007 1.835016,-0.64643 2.259773,-2.7603 -0.915348,0.4576 -1.947126,1.10075 -2.131051,0.50051 -0.189177,-1.37313 -0.334294,-2.8128095 -0.400466,-4.8770995 0.0021,-0.0625 0.01429,-0.12298 0.01429,-0.1859 0,-3.79151 -3.073625,-6.86512003 -6.86514,-6.86512003 z" style="fill:#000000;fill-opacity:1;stroke:none" inkscape:connector-curvature="0"/>
  <path style="font-size:medium;font-style:normal;font-variant:normal;font-weight:normal;font-stretch:normal;text-indent:0;text-align:start;text-decoration:none;line-height:normal;letter-spacing:normal;word-spacing:normal;text-transform:none;direction:ltr;block-progression:tb;writing-mode:lr-tb;text-anchor:start;baseline-shift:baseline;color:#000000;fill:#000000;fill-opacity:1;stroke:none;stroke-width:2;marker:none;visibility:visible;display:inline;overflow:visible;enable-background:accumulate;font-family:Sans;-inkscape-font-specification:Sans" d="m 61.410474,9.8635625 a 0.25655715,0.25655715 0 0 0 -0.01603,0.008 l -2.974162,0.8016695 a 0.25655715,0.25655715 0 0 0 -0.176365,0.31263 l 2.332833,8.60986 -0.961993,4.18465 a 0.25655715,0.25655715 0 0 0 0.320664,0.30466 l 6.934366,-1.87592 a 0.25655715,0.25655715 0 0 0 0.120249,-0.42486 l -2.950111,-3.13456 -2.332833,-8.60181 A 0.25655715,0.25655715 0 0 0 61.410474,9.8634825 z m -0.136282,0.5691895 2.29275,8.41744 a 0.25655715,0.25655715 0 0 0 0.05612,0.10423 l 2.69358,2.86992 -6.100639,1.65145 0.873811,-3.83196 a 0.25655715,0.25655715 0 0 0 0,-0.12024 l -2.292751,-8.41744 2.477133,-0.6734 z" id="path4025" inkscape:connector-curvature="0"/>
  <path style="fill:#000000;stroke:none" d="m 60.639475,20.623722 4.859465,0.0414 1.240715,1.24071 -6.844612,1.90244 z" id="path4027" inkscape:connector-curvature="0"/>
</svg>