<svg xmlns="http://www.w3.org/2000/svg" xmlns:xlink="http://www.w3.org/1999/xlink" version="1.1" id="Layer_1" x="0px" y="0px" width="100px" height="100px" viewBox="0 0 100 100" enable-background="new 0 0 100 100" xml:space="preserve">
<g>
	<path fill="#000000" d="M82.49,94.962H17.51V5.035h64.98V94.962z M19.112,93.359h61.775V6.637H19.112V93.359z"/>
</g>
<g>
	<path fill="#000000" d="M74.257,32.762H25.743V14.5h48.514V32.762z M27.345,31.159h45.309V16.102H27.345V31.159z"/>
</g>
<g>
	<path fill="#000000" d="M74.056,51.205H25.943v-9.532h48.112V51.205z M27.146,50.003h45.709v-7.128H27.146V50.003z"/>
</g>
<g>
	<path fill="#000000" d="M74.056,68.911H25.943V59.38h48.112V68.911z M27.146,67.71h45.709v-7.129H27.146V67.71z"/>
</g>
<g>
	<path fill="#000000" d="M35.952,86.143h-9.213v-9.214h9.213V86.143z M27.94,84.94h6.811V78.13H27.94V84.94z"/>
</g>
<g>
	<path fill="#000000" d="M73.968,86.143h-9.213v-9.214h9.213V86.143z M65.956,84.94h6.81V78.13h-6.81V84.94z"/>
</g>
<g>
	<path fill="#000000" d="M54.96,86.143h-9.213v-9.214h9.213V86.143z M46.948,84.94h6.811V78.13h-6.811V84.94z"/>
</g>
</svg>