<svg xmlns="http://www.w3.org/2000/svg" xmlns:xlink="http://www.w3.org/1999/xlink" version="1.0" id="Layer_1" x="0px" y="0px" width="26px" height="26px" viewBox="0 0 26 26" style="enable-background:new 0 0 26 26;" xml:space="preserve">
<g>
	<path d="M22.013,20.894c0,0-0.789-0.167-0.415-0.904c0.462-0.58,0.743-1.238,0.765-1.454c0,0,0.71-0.524,0.751-1.31   c0.045-0.784-0.155-0.821-0.155-0.821c0.298-0.856,0.372-3.95-1.829-3.567c-0.31-0.844-2.643-1.317-3.715,0.477   c-0.534,0.895-0.733,2.116-0.316,3.113c-0.015,0.074-0.148-0.072-0.196,0.388c-0.047,0.444,0.167,1.081,0.399,1.376   c0.101,0.125,0.263,0.216,0.376,0.262c0,0,0.139,0.791,0.799,1.537c0.152,0.592-0.475,0.904-0.475,0.904   c-2.077,0.374-3.986,1.454-3.986,2.622c0,0.086,0,0.905,0,0.905h0c0,1.268,3.154,1.54,5.989,1.539c2.838,0,5.97-0.764,5.97-1.54   c0,0,0-0.819,0-0.905C25.975,22.348,24.089,21.268,22.013,20.894z"/>
	<path d="M8.013,20.894c0,0-0.789-0.167-0.415-0.904c0.462-0.58,0.743-1.238,0.765-1.454c0,0,0.71-0.524,0.751-1.31   c0.045-0.784-0.155-0.821-0.155-0.821c0.298-0.856,0.372-3.95-1.829-3.567c-0.31-0.844-2.643-1.317-3.715,0.477   c-0.534,0.895-0.733,2.116-0.316,3.113c-0.015,0.074-0.148-0.072-0.196,0.388c-0.047,0.444,0.167,1.081,0.399,1.376   c0.101,0.125,0.263,0.216,0.376,0.262c0,0,0.139,0.791,0.799,1.537c0.152,0.592-0.475,0.904-0.475,0.904   c-2.077,0.374-3.986,1.454-3.986,2.622c0,0.086,0,0.905,0,0.905h0c0,1.268,3.154,1.54,5.989,1.539c2.838,0,5.97-0.764,5.97-1.54   c0,0,0-0.819,0-0.905C11.975,22.348,10.089,21.268,8.013,20.894z"/>
	<path d="M8.5,11c0.845,0,1.705-0.139,2.51-0.412C12.195,11.48,13.824,12,15.5,12c3.151,0,6.5-1.936,6.5-5.522   C22,3.304,19.267,1,15.5,1c-0.924,0-1.778,0.127-2.547,0.38C11.815,0.51,10.271,0,8.5,0C4.233,0,2,2.809,2,5.583   C2,9.139,5.27,11,8.5,11z M15,5.478c0-0.875-0.208-1.684-0.588-2.397C14.755,3.027,15.117,3,15.5,3C18.149,3,20,4.43,20,6.478   C20,9.062,17.309,10,15.5,10c-0.722,0-1.628-0.146-2.443-0.513C14.219,8.557,15,7.21,15,5.478z M8.5,2C11.149,2,13,3.43,13,5.478   c0,1.53-0.943,2.482-2.088,3.005c-0.072,0.021-0.142,0.051-0.208,0.089C9.97,8.87,9.174,9,8.5,9C6.691,9,4,8.09,4,5.583   C4,4.344,4.94,2,8.5,2z"/>
	<circle cx="1" cy="15" r="1"/>
	<circle cx="1.5" cy="10.5" r="1.5"/>
	<circle cx="25" cy="14" r="1"/>
	<circle cx="24.5" cy="9.5" r="1.5"/>
</g>
</svg>