<svg xmlns="http://www.w3.org/2000/svg" xmlns:xlink="http://www.w3.org/1999/xlink" version="1.1" id="Layer_1" x="0px" y="0px" width="96px" height="99.818px" viewBox="-3.456 0 96 99.818" enable-background="new -3.456 0 96 99.818" xml:space="preserve">
<path d="M18.358,37.825c0,0,1.096,6.512,8.915,7.89c7.362,1.296,11.334-3.631,11.334-3.631s-1.524-6.367-8.906-7.886  C21.354,32.482,18.358,37.825,18.358,37.825z"/>
<g>
	<path d="M44.652,64.271c-8.958-0.008-19.688-6.432-19.688-6.432c1.522,6.211,4.73,11.373,8.413,14.979   c3.684,3.607,7.842,5.662,11.26,5.664c0.211,0,0.426-0.01,0.643-0.025l0.01-14.199C45.077,64.263,44.865,64.271,44.652,64.271z"/>
	<g>
		<path fill="none" d="M7.736,13.329c0.55,28.032,7.343,45.819,13.084,55.93c6.968,12.259,16.103,19.584,24.436,19.594L45.3,23.461    L7.736,13.329z"/>
		<path d="M45.305,17.429L1.879,5.718L1.876,9.516c-0.022,31.514,7.535,51.446,13.88,62.62c8.018,14.105,19.045,22.532,29.5,22.541    h0.011c10.053-0.001,21.1-9.409,29.551-25.168c8.967-16.714,13.914-37.999,13.929-59.933l0.003-3.799L45.305,17.429z M20.82,69.26    C15.079,59.148,8.286,41.362,7.736,13.329L45.3,23.461l-0.045,65.393C36.923,88.844,27.788,81.518,20.82,69.26z M56.099,72.658    c-3.522,3.438-7.517,5.555-10.819,5.799l0.01-14.199c9.37-0.266,19.055-6.391,19.055-6.391    C63.065,63.844,59.849,68.996,56.099,72.658z M63.717,45.739c-7.365,1.287-11.331-3.646-11.331-3.646s1.534-6.365,8.918-7.872    c8.35-1.705,11.338,3.641,11.338,3.641S71.538,44.373,63.717,45.739z"/>
	</g>
</g>
</svg>